<svg xmlns="http://www.w3.org/2000/svg" xmlns:xlink="http://www.w3.org/1999/xlink" viewBox="0 0 144 144"><defs><style>.cls-1{isolation:isolate;}.cls-2{fill:url(#linear-gradient);}.cls-3{mix-blend-mode:overlay;}.cls-4{fill:url(#linear-gradient-2);}.cls-5{fill:url(#linear-gradient-3);}.cls-6{fill:url(#linear-gradient-4);}.cls-7{fill:url(#linear-gradient-5);}.cls-8{fill:none;}.cls-9{fill:url(#linear-gradient-6);}.cls-10{fill:url(#linear-gradient-7);}.cls-11{fill:url(#linear-gradient-8);}.cls-12{fill:url(#linear-gradient-9);}.cls-13{fill:#fff;mix-blend-mode:hard-light;opacity:0.85;}</style><linearGradient id="linear-gradient" x1="19.62" y1="17.16" x2="110.12" y2="111.91" gradientUnits="userSpaceOnUse"><stop offset="0" stop-color="#1cafa3"/><stop offset="1" stop-color="#164bc2"/></linearGradient><linearGradient id="linear-gradient-2" x1="-18.61" y1="137.89" x2="122.4" y2="-3.13" gradientUnits="userSpaceOnUse"><stop offset="0" stop-color="#1cafa3" stop-opacity="0"/><stop offset="1" stop-color="#4e29c8" stop-opacity="0.5"/></linearGradient><linearGradient id="linear-gradient-3" x1="28.91" y1="185.41" x2="169.92" y2="44.4" xlink:href="#linear-gradient-2"/><linearGradient id="linear-gradient-4" x1="-49.32" y1="107.18" x2="91.7" y2="-33.83" xlink:href="#linear-gradient-2"/><linearGradient id="linear-gradient-5" x1="12.36" y1="168.86" x2="153.37" y2="27.84" xlink:href="#linear-gradient-2"/><linearGradient id="linear-gradient-6" x1="-56.11" y1="147.37" x2="118.85" y2="-27.58" gradientTransform="matrix(1.12, -0.3, 0.26, 0.97, -11.91, 19.37)" gradientUnits="userSpaceOnUse"><stop offset="0" stop-color="#1cafa3" stop-opacity="0"/><stop offset="1" stop-color="#bbb"/></linearGradient><linearGradient id="linear-gradient-7" x1="7.7" y1="211.17" x2="182.64" y2="36.23" xlink:href="#linear-gradient-6"/><linearGradient id="linear-gradient-8" x1="-93.19" y1="110.29" x2="81.77" y2="-64.67" xlink:href="#linear-gradient-6"/><linearGradient id="linear-gradient-9" x1="-19.39" y1="184.09" x2="155.56" y2="9.14" xlink:href="#linear-gradient-6"/></defs><g class="cls-1"><g id="Layer_2" data-name="Layer 2"><g id="square_2020" data-name="square 2020"><g id="blue"><rect class="cls-2" width="144" height="144"/><g class="cls-3"><path class="cls-4" d="M0,107.89v16.36Q72,70,144,15.86V0H78.69Q47,43.83,15.15,87.58C10.17,94.41,5.1,101.16,0,107.89Z"/><path class="cls-5" d="M0,144H144V120.06L0,140.64Z"/><path class="cls-6" d="M7.09,84.35Q30.26,42.13,53.64,0H18.23Q9.14,30,0,59.91v37.6C2.34,93.11,4.69,88.72,7.09,84.35Z"/><path class="cls-7" d="M0,135.19,138.49,89.93,144,88.11V54.76Q72,92.52,0,130.32Z"/></g><g class="cls-3"><path class="cls-8" d="M15.67,0Q7.82,24.86,0,49.71V94.94Q22.13,47.5,44.07,0Z"/><path class="cls-8" d="M144,0H125Q62.46,69.78,0,139.6V144H10.49Q77.27,89,144,33.91Z"/><path class="cls-8" d="M144,76.05,30.44,144H67.5L144,112.83Z"/><polygon class="cls-8" points="122.23 144 144 144 144 138.11 122.23 144"/><path class="cls-9" d="M44.07,0Q22.1,47.49,0,94.94V139.6Q62.47,69.79,125,0Z"/><path class="cls-10" d="M144,112.83,67.5,144h54.73L144,138.11Z"/><path class="cls-11" d="M0,0V49.71Q7.82,24.86,15.67,0Z"/><path class="cls-12" d="M144,33.91Q77.25,88.95,10.49,144h20L144,76.05Z"/></g></g><polygon id="opaque_N" data-name="opaque N" class="cls-13" points="13.82 124.09 13.82 39.41 31.85 39.41 72.95 92.05 72 59.16 89.68 39.41 89.68 124.09 74.36 124.09 30.44 66.56 30.44 105.58 13.82 124.09"/></g></g></g></svg>